<svg width="66" height="43" viewBox="0 0 66 43" fill="none" xmlns="http://www.w3.org/2000/svg">
<g clip-path="url(#clip0_498_685)">
<path d="M65.8734 5.68123C65.836 6.97617 65.2636 8.29422 64.1689 9.39763C60.3883 13.2065 56.6123 17.0206 52.8411 20.8398C52.2808 21.4035 52.2836 21.4059 52.8299 21.9588C56.6382 25.8271 60.4458 29.6954 64.2529 33.5637C65.7562 35.0955 66.365 36.9131 65.7786 39.0326C64.6581 43.084 59.7407 44.3497 56.7477 41.348C52.5728 37.1607 48.4118 32.9589 44.2649 28.7425C42.4133 26.8715 40.5615 25.0003 38.7093 23.1287C37.5543 21.9593 37.5529 20.8473 38.7093 19.685C44.6757 13.6793 50.645 7.6764 56.617 1.67612C58.2617 0.0250118 60.5096 -0.43211 62.5708 0.436372C64.5442 1.26806 65.8752 3.27533 65.8734 5.68123Z" fill="#0C00FF"/>
<path d="M34.2001 16.2639C33.8802 16.5842 33.4481 16.7639 32.9977 16.7639C32.5473 16.7639 32.1152 16.5842 31.7953 16.2639C29.6179 14.0844 26.9153 11.3941 24.9283 9.40614C23.8298 8.3065 23.2528 6.99033 23.2107 5.69539C23.2009 3.28949 24.5249 1.27798 26.4956 0.439213C28.5539 -0.435873 30.8056 0.0118138 32.4536 1.6582C34.3724 3.57396 37.1497 6.43839 39.349 8.66455C39.5079 8.82535 39.6338 9.01626 39.7195 9.22633C39.8051 9.43639 39.8489 9.66148 39.8483 9.88869C39.8477 10.1159 39.8027 10.3407 39.7159 10.5503C39.6291 10.7599 39.5022 10.9501 39.3425 11.1101L34.2001 16.2639Z" fill="#0C00FF"/>
<path d="M0.126141 5.68147C0.163489 6.97641 0.735854 8.29447 1.83063 9.39788C5.61124 13.2067 9.38718 17.0208 13.1584 20.84C13.7187 21.4038 13.7159 21.4061 13.1697 21.959C9.36134 25.8273 5.55366 29.6956 1.7466 33.5639C0.243321 35.0957 -0.36546 36.9133 0.220912 39.0329C1.34137 43.0842 6.25877 44.3499 9.25179 41.3482C13.427 37.161 17.588 32.9592 21.7346 28.7427C23.5862 26.8718 25.438 25.0005 27.2902 23.129C28.4452 21.9595 28.4466 20.8476 27.2902 19.6852C21.3238 13.6796 15.3545 7.67664 9.38251 1.67636C7.73777 0.025256 5.48986 -0.431866 3.42868 0.436616C1.45528 1.2683 0.124273 3.27558 0.126141 5.68147Z" fill="#0C00FF"/>
<path d="M34.1669 26.622C33.8469 26.3018 33.4148 26.1221 32.9645 26.1221C32.5142 26.1221 32.0821 26.3018 31.7621 26.622C29.5847 28.8 26.8839 31.4904 24.8951 33.4783C23.7966 34.5779 23.2196 35.8941 23.1775 37.189C23.1677 39.5949 24.4917 41.6065 26.4623 42.4452C28.5207 43.3213 30.77 42.8726 32.4204 41.2262C34.3392 39.3128 37.1165 36.446 39.3154 34.2199C39.4743 34.0591 39.6003 33.8683 39.686 33.6582C39.7718 33.4482 39.8156 33.2231 39.8151 32.9958C39.8145 32.7686 39.7695 32.5438 39.6827 32.3341C39.596 32.1245 39.469 31.9343 39.3093 31.7744L34.1669 26.622Z" fill="#0C00FF"/>
</g>
<defs>
<clipPath id="clip0_498_685">
<rect width="66" height="43" fill="white"/>
</clipPath>
</defs>
</svg>
