<svg width="8" height="10" viewBox="0 0 8 10" fill="none" xmlns="http://www.w3.org/2000/svg">
<path d="M7.24334 6.72251L4.36873 9.50071C4.20994 9.6669 3.99366 9.75 3.75548 9.75C3.51729 9.75 3.30375 9.6669 3.14222 9.50071L0.256663 6.72251C-0.0855525 6.3929 -0.0855525 5.85554 0.256663 5.52592C0.598879 5.19631 1.1519 5.19631 1.49412 5.52592L2.87393 6.86101L2.87393 0.850355C2.87393 0.379474 3.26542 -1.85099e-07 3.75 -1.63918e-07C4.23458 -1.42736e-07 4.62607 0.379474 4.62607 0.847585L4.62607 6.85824L6.00589 5.52315C6.3481 5.19354 6.90112 5.19354 7.24334 5.52315C7.58555 5.85554 7.58555 6.39013 7.24334 6.72251Z" fill="white"/>
</svg>
