<svg width="16" height="16" viewBox="0 0 16 16" fill="none" xmlns="http://www.w3.org/2000/svg">
<path d="M3.875 9.5L2.75 9.5C1.92155 9.5 1.25 8.82845 1.25 8L1.25 2.75C1.25 1.92157 1.92155 1.25 2.75 1.25L8 1.25C8.82845 1.25 9.5 1.92157 9.5 2.75L9.5 3.875M13.25 14.75L8 14.75C7.17155 14.75 6.5 14.0785 6.5 13.25L6.5 8C6.5 7.17155 7.17155 6.5 8 6.5L13.25 6.5C14.0784 6.5 14.75 7.17155 14.75 8L14.75 13.25C14.75 14.0785 14.0784 14.75 13.25 14.75Z" stroke="#B5B5B5" stroke-width="1.5" stroke-linecap="round" stroke-linejoin="round"/>
</svg>
