<svg width="23" height="23" viewBox="0 0 23 23" fill="none" xmlns="http://www.w3.org/2000/svg">
<g clip-path="url(#clip0_497_187)">
<path d="M11.5001 23C17.8514 23 23.0001 17.8513 23.0001 11.5C23.0001 5.14873 17.8514 0 11.5001 0C5.14875 0 0 5.14873 0 11.5C0 17.8513 5.14875 23 11.5001 23Z" fill="#0C00FF"/>
<path d="M18.7207 8.06153C18.7124 8.34302 18.5867 8.62944 18.3463 8.86932C17.5159 9.69724 16.6865 10.5262 15.8582 11.3563C15.7356 11.4789 15.7358 11.4789 15.8558 11.5995C16.692 12.4402 17.5282 13.2809 18.3644 14.1218C18.6946 14.4551 18.8285 14.8502 18.6996 15.3106C18.4534 16.1911 17.3733 16.4663 16.716 15.8138C15.7989 14.9037 14.8849 13.9903 13.9742 13.0739C13.5674 12.6671 13.1607 12.2603 12.754 11.8535C12.5004 11.5991 12.5 11.3575 12.754 11.1047C14.0648 9.79971 15.3758 8.49516 16.6872 7.19102C17.0485 6.832 17.5422 6.73273 17.995 6.9215C18.4287 7.10225 18.721 7.53855 18.7207 8.06153Z" fill="#F6F6F6"/>
<path d="M11.7635 10.3614C11.729 10.3959 11.6879 10.4232 11.6425 10.4419C11.5972 10.4605 11.5485 10.4701 11.4994 10.4701C11.4503 10.4701 11.4016 10.4605 11.3563 10.4419C11.3109 10.4232 11.2698 10.3959 11.2353 10.3614C10.757 9.88784 10.1634 9.30302 9.72698 8.87091C9.48565 8.63189 9.35896 8.34583 9.34968 8.06435C9.34755 7.54137 9.63817 7.10408 10.0712 6.92173C10.5227 6.73136 11.0174 6.82889 11.3799 7.18667C11.8012 7.60261 12.4113 8.22583 12.8944 8.70979C12.9649 8.78091 13.0043 8.87643 13.004 8.97582C13.0038 9.07521 12.9639 9.17053 12.893 9.24129L11.7635 10.3614Z" fill="#F6F6F6"/>
<path d="M4.27947 8.06153C4.28775 8.34302 4.41343 8.62944 4.65388 8.86932C5.48424 9.69724 6.31359 10.5262 7.14194 11.3563C7.26449 11.4789 7.26436 11.4789 7.14432 11.5995C6.30811 12.4402 5.4719 13.2809 4.63569 14.1218C4.30556 14.4551 4.1716 14.8502 4.30054 15.3106C4.54676 16.1911 5.62685 16.4663 6.28411 15.8138C7.20127 14.9037 8.1152 13.9903 9.02592 13.0739C9.43265 12.6671 9.83939 12.2603 10.2461 11.8535C10.4997 11.5991 10.5001 11.3575 10.2461 11.1047C8.93536 9.79971 7.62431 8.49516 6.31296 7.19102C5.95159 6.832 5.4579 6.73273 5.00509 6.9215C4.57147 7.10225 4.27909 7.53855 4.27947 8.06153Z" fill="#F6F6F6"/>
<path d="M11.7565 12.6133C11.722 12.5789 11.6808 12.5516 11.6355 12.5329C11.5902 12.5142 11.5415 12.5046 11.4924 12.5046C11.4432 12.5046 11.3946 12.5142 11.3492 12.5329C11.3039 12.5516 11.2628 12.5789 11.2283 12.6133C10.75 13.0868 10.1563 13.6717 9.71996 14.1039C9.47863 14.3429 9.35194 14.6289 9.34266 14.9104C9.34053 15.4333 9.63116 15.8707 10.0641 16.0529C10.5163 16.2433 11.0103 16.1459 11.3729 15.788C11.7942 15.372 12.4043 14.7489 12.8874 14.265C12.9579 14.1938 12.9973 14.0983 12.997 13.9989C12.9968 13.8995 12.9569 13.8041 12.886 13.7334L11.7565 12.6133Z" fill="#F6F6F6"/>
</g>
<defs>
<clipPath id="clip0_497_187">
<rect width="23" height="23" fill="white"/>
</clipPath>
</defs>
</svg>
