<svg width="15" height="15" viewBox="0 0 15 15" fill="none" xmlns="http://www.w3.org/2000/svg">
<path d="M13.8333 6.70833C13.6234 6.70833 13.422 6.79174 13.2735 6.94021C13.1251 7.08867 13.0417 7.29004 13.0417 7.5V12.25C13.0417 12.46 12.9583 12.6613 12.8098 12.8098C12.6613 12.9583 12.46 13.0417 12.25 13.0417H2.75C2.54004 13.0417 2.33867 12.9583 2.19021 12.8098C2.04174 12.6613 1.95833 12.46 1.95833 12.25V2.75C1.95833 2.54004 2.04174 2.33867 2.19021 2.19021C2.33867 2.04174 2.54004 1.95833 2.75 1.95833H7.5C7.70996 1.95833 7.91133 1.87493 8.05979 1.72646C8.20826 1.57799 8.29167 1.37663 8.29167 1.16667C8.29167 0.956704 8.20826 0.75534 8.05979 0.606874C7.91133 0.458407 7.70996 0.375 7.5 0.375H2.75C2.12011 0.375 1.51602 0.625223 1.07062 1.07062C0.625223 1.51602 0.375 2.12011 0.375 2.75V12.25C0.375 12.8799 0.625223 13.484 1.07062 13.9294C1.51602 14.3748 2.12011 14.625 2.75 14.625H12.25C12.8799 14.625 13.484 14.3748 13.9294 13.9294C14.3748 13.484 14.625 12.8799 14.625 12.25V7.5C14.625 7.29004 14.5416 7.08867 14.3931 6.94021C14.2447 6.79174 14.0433 6.70833 13.8333 6.70833Z" fill="#B5B5B5"/>
<path d="M10.6667 1.95833H11.9175L6.93791 6.93C6.86371 7.0036 6.80481 7.09116 6.76462 7.18763C6.72443 7.2841 6.70374 7.38757 6.70374 7.49208C6.70374 7.59659 6.72443 7.70007 6.76462 7.79654C6.80481 7.89301 6.86371 7.98057 6.93791 8.05417C7.0115 8.12837 7.09906 8.18726 7.19554 8.22746C7.29201 8.26765 7.39548 8.28834 7.49999 8.28834C7.6045 8.28834 7.70798 8.26765 7.80445 8.22746C7.90092 8.18726 7.98848 8.12837 8.06208 8.05417L13.0417 3.0825V4.33333C13.0417 4.5433 13.1251 4.74466 13.2735 4.89313C13.422 5.04159 13.6234 5.125 13.8333 5.125C14.0433 5.125 14.2447 5.04159 14.3931 4.89313C14.5416 4.74466 14.625 4.5433 14.625 4.33333V1.16667C14.625 0.956704 14.5416 0.75534 14.3931 0.606874C14.2447 0.458407 14.0433 0.375 13.8333 0.375H10.6667C10.4567 0.375 10.2553 0.458407 10.1069 0.606874C9.9584 0.75534 9.87499 0.956704 9.87499 1.16667C9.87499 1.37663 9.9584 1.57799 10.1069 1.72646C10.2553 1.87493 10.4567 1.95833 10.6667 1.95833Z" fill="#B5B5B5"/>
</svg>
