<svg width="16" height="14" viewBox="0 0 16 14" fill="none" xmlns="http://www.w3.org/2000/svg">
<path d="M13.545 1.90696C12.5075 1.43083 11.4127 1.091 10.288 0.895958C10.2778 0.894242 10.2673 0.895724 10.258 0.900201C10.2487 0.904678 10.241 0.911929 10.236 0.920958C10.095 1.17096 9.93899 1.49796 9.82999 1.75396C8.61759 1.56997 7.38438 1.56997 6.17199 1.75396C6.0504 1.46878 5.91285 1.19067 5.75999 0.920958C5.75486 0.912028 5.74714 0.90486 5.73786 0.900398C5.72858 0.895936 5.71816 0.894388 5.70799 0.895958C4.58299 1.08996 3.48799 1.42996 2.45099 1.90696C2.44211 1.91034 2.43469 1.91671 2.42999 1.92496C0.355986 5.02396 -0.213014 8.04696 0.0659858 11.032C0.0669858 11.046 0.0759858 11.06 0.0869858 11.069C1.29471 11.9636 2.64558 12.6466 4.08199 13.089C4.09213 13.0922 4.10302 13.092 4.1131 13.0886C4.12317 13.0852 4.13189 13.0787 4.13799 13.07C4.44599 12.65 4.71999 12.207 4.95599 11.741C4.9609 11.7314 4.96259 11.7204 4.96079 11.7098C4.95898 11.6992 4.95379 11.6894 4.94599 11.682C4.94082 11.6771 4.93469 11.6733 4.92799 11.671C4.49715 11.5054 4.07988 11.3064 3.67999 11.076C3.66882 11.0696 3.66051 11.0592 3.65679 11.047C3.65306 11.0347 3.65421 11.0214 3.65999 11.01C3.66339 11.0025 3.66853 10.996 3.67499 10.991C3.75899 10.928 3.84299 10.862 3.92299 10.796C3.93005 10.7903 3.93853 10.7866 3.94752 10.7854C3.9565 10.7842 3.96565 10.7854 3.97399 10.789C6.59299 11.985 9.42799 11.985 12.015 10.789C12.0236 10.7852 12.0331 10.7839 12.0425 10.7851C12.0518 10.7864 12.0606 10.7901 12.068 10.796C12.148 10.862 12.232 10.928 12.316 10.991C12.3228 10.9959 12.3283 11.0025 12.3319 11.0101C12.3355 11.0177 12.3372 11.0261 12.3368 11.0345C12.3364 11.043 12.334 11.0511 12.3296 11.0584C12.3253 11.0656 12.3192 11.0716 12.312 11.076C11.913 11.3086 11.4952 11.5072 11.063 11.67C11.0561 11.6725 11.0498 11.6764 11.0446 11.6816C11.0395 11.6868 11.0355 11.6931 11.033 11.7C11.0307 11.7066 11.0297 11.7137 11.0303 11.7208C11.0308 11.7278 11.0327 11.7347 11.036 11.741C11.276 12.206 11.551 12.65 11.853 13.07C11.8591 13.0787 11.8678 13.0852 11.8779 13.0886C11.8879 13.092 11.8988 13.0922 11.909 13.089C13.3478 12.648 14.7009 11.9649 15.91 11.069C15.916 11.0648 15.9211 11.0593 15.9247 11.0529C15.9283 11.0465 15.9305 11.0393 15.931 11.032C16.265 7.58096 15.372 4.58296 13.565 1.92596C13.5632 1.92157 13.5604 1.91761 13.557 1.91434C13.5536 1.91107 13.5495 1.90855 13.545 1.90696ZM5.34699 9.21396C4.55799 9.21396 3.90899 8.48996 3.90899 7.60196C3.90899 6.71296 4.54599 5.98896 5.34699 5.98896C6.15399 5.98896 6.79699 6.71896 6.78499 7.60196C6.78499 8.48996 6.14799 9.21396 5.34699 9.21396ZM10.663 9.21396C9.87499 9.21396 9.22499 8.48996 9.22499 7.60196C9.22499 6.71296 9.86199 5.98896 10.663 5.98896C11.47 5.98896 12.114 6.71896 12.101 7.60196C12.101 8.48996 11.47 9.21396 10.663 9.21396Z" fill="#0029FF"/>
</svg>
