<svg width="21" height="13" viewBox="0 0 21 13" fill="none" xmlns="http://www.w3.org/2000/svg">
<path d="M11.8453 6.50001C11.8453 9.76157 9.19406 12.4063 5.922 12.4063C5.14535 12.4073 4.37609 12.2553 3.65816 11.9591C2.94023 11.6628 2.28768 11.2281 1.73777 10.6796C1.18787 10.1312 0.751366 9.47978 0.453198 8.76265C0.15503 8.04551 0.00103347 7.27666 0 6.50001C0 3.23713 2.65125 0.593757 5.922 0.593757C6.69876 0.59255 7.46816 0.744371 8.18624 1.04055C8.90432 1.33673 9.55703 1.77147 10.1071 2.31993C10.6571 2.86839 11.0937 3.51984 11.392 4.23706C11.6902 4.95429 11.8443 5.72324 11.8453 6.50001ZM18.3422 6.50001C18.3422 9.57126 17.0166 12.0598 15.3812 12.0598C13.7458 12.0598 12.4202 9.56994 12.4202 6.50001C12.4202 3.42876 13.7458 0.940257 15.3812 0.940257C17.0166 0.940257 18.3422 3.43007 18.3422 6.50001ZM21 6.50001C21 9.25101 20.5341 11.4809 19.9579 11.4809C19.383 11.4809 18.9171 9.24969 18.9171 6.50001C18.9171 3.74901 19.383 1.51907 19.9592 1.51907C20.5341 1.51907 21 3.74901 21 6.50001Z" fill="#787878"/>
</svg>
